<svg width="24" height="25" viewBox="0 0 24 25" fill="none" xmlns="http://www.w3.org/2000/svg">
<path d="M13.2331 9.83467L9.56391 7.07286V17.9271L13.2331 15.1653L16.782 12.5L13.2331 9.83467ZM13.2331 9.83467L9.56391 7.07286V17.9271L13.2331 15.1653L16.782 12.5L13.2331 9.83467ZM13.2331 9.83467L9.56391 7.07286V17.9271L13.2331 15.1653L16.782 12.5L13.2331 9.83467ZM10.7669 2.93618V0.5C8.34887 0.741206 6.14737 1.70603 4.36692 3.16533L6.07519 4.88995C7.41053 3.85276 9.01053 3.15327 10.7669 2.93618ZM4.37895 6.59045L2.65865 4.87789C1.20301 6.66281 0.240601 8.86985 0 11.294H2.43008C2.64662 9.53316 3.34436 7.92915 4.37895 6.59045ZM2.43008 13.706H0C0.240601 16.1301 1.20301 18.3372 2.65865 20.1221L4.37895 18.3975C3.34436 17.0709 2.64662 15.4668 2.43008 13.706ZM4.36692 21.8347C6.14737 23.294 8.3609 24.2588 10.7669 24.5V22.0638C9.01053 21.8467 7.41053 21.1472 6.07519 20.11L4.36692 21.8347ZM24 12.5C24 18.7231 19.2842 23.8608 13.2331 24.5V22.0638C17.9489 21.4367 21.594 17.3844 21.594 12.5C21.594 7.61558 17.9489 3.56332 13.2331 2.93618V0.5C19.2842 1.1392 24 6.27688 24 12.5Z" fill="#4A4FC4"/>
</svg>
